# xmcd
#
# Track frame offsets: 
#        150
#        12265
#        24617
#        39120
#        49478
#        62288
#        75090
#        86498
#        98175
#        110723
#        125833
#        136741
#        148798
#        160465
#        177848
#        190248
#        200438
#        213223
#        224463
#        240115
#        253965
#        266200
#        295407
#        306245
#        316835
#
# Disc length: 4403 seconds
#
# Revision: 0
# Processed by: cddbd v1.4PL0 Copyright (c) Steve Scherf et al.
# Submitted via: ExactAudioCopy v0.95a3
#
DISCID=68113119
DTITLE=Ray Charles - Beat of the Atlantic Years
DYEAR=2003
DGENRE=R&B
TTITLE0=Mess Around
TTITLE1=It Should Have Been Me
TTITLE2=Losing Hand
TTITLE3=Blackjack
TTITLE4=Greenbacks
TTITLE5=I Got A Woman
TTITLE6=This Little Girl Of Mine
TTITLE7=Hallelujah I Love Her So
TTITLE8=Mary Ann
TTITLE9=Drown In My Own Tears
TTITLE10=I Want To Know
TTITLE11=Leave My Woman Alone
TTITLE12=Lonely Avenue
TTITLE13=Rockhouse  Parts 1 and 2
TTITLE14=That's Enough
TTITLE15=Yes Indeed
TTITLE16=Talkin' About You
TTITLE17=You Be My Baby
TTITLE18=The Right Time
TTITLE19=Tell The Truth
TTITLE20=Tell Me How Do You Feel
TTITLE21=What'd I Say, Parts 1 and 2
TTITLE22=Carryin' The Load
TTITLE23=I'm Movin' On
TTITLE24=I Believe To My Soul
EXTD=BOGEN! rules\n
EXTT0=
EXTT1=
EXTT2=
EXTT3=
EXTT4=
EXTT5=
EXTT6=
EXTT7=
EXTT8=
EXTT9=
EXTT10=
EXTT11=
EXTT12=
EXTT13=
EXTT14=
EXTT15=
EXTT16=
EXTT17=
EXTT18=
EXTT19=
EXTT20=
EXTT21=
EXTT22=
EXTT23=
EXTT24=
PLAYORDER=
